<?xml version="1.0" standalone="no"?>
<!DOCTYPE svg PUBLIC "-//W3C//DTD SVG 20010904//EN"
 "http://www.w3.org/TR/2001/REC-SVG-20010904/DTD/svg10.dtd">
<svg version="1.0" xmlns="http://www.w3.org/2000/svg"
 width="600.000000pt" height="600.000000pt" viewBox="0 0 600.000000 600.000000"
 preserveAspectRatio="xMidYMid meet">
<metadata>
Created by potrace 1.11, written by Peter Selinger 2001-2013
</metadata>
<g transform="translate(0.000000,600.000000) scale(0.100000,-0.100000)"
fill="#000000" stroke="none">
<path d="M634 4586 c-102 -25 -150 -76 -173 -184 -14 -66 -14 -590 -1 -685 17
-119 -15 -74 559 -772 l361 -439 0 -363 0 -363 -330 0 -330 0 0 375 0 375
-135 0 -135 0 0 -373 c0 -475 8 -517 107 -585 l38 -27 460 0 460 0 38 27 c22
14 51 43 65 65 l27 38 3 420 c3 460 2 473 -58 559 -15 23 -217 271 -449 551
l-421 510 0 323 0 322 330 0 330 0 0 -345 0 -345 135 0 136 0 -3 393 -3 392
-27 38 c-36 53 -82 81 -152 95 -83 17 -763 15 -832 -2z"/>
<path d="M2130 3070 l0 -1530 490 0 490 0 0 120 0 120 -355 0 -355 0 0 1410 0
1410 -135 0 -135 0 0 -1530z"/>
<path d="M3500 3070 l0 -1530 135 0 135 0 0 1530 0 1530 -135 0 -135 0 0
-1530z"/>
<path d="M4465 4586 c-102 -23 -155 -79 -174 -181 -15 -82 -15 -2598 0 -2680
13 -69 42 -117 96 -153 l38 -27 470 0 470 0 38 27 c22 14 51 43 65 65 l27 38
3 428 3 427 -136 0 -135 0 0 -375 0 -375 -340 0 -340 0 0 1290 0 1290 340 0
340 0 0 -345 0 -345 135 0 136 0 -3 388 c-3 386 -3 387 -26 425 -34 53 -83 88
-150 103 -74 18 -781 18 -857 0z"/>
</g>
</svg>
